<svg version="1.1" preserveAspectRatio="none" xmlns="http://www.w3.org/2000/svg" width="500" height="500" viewBox="0 0 500 500"><rect width="100%" height="100%" fill="#87A3B5" fill-opacity="1"/><svg viewBox="1252.9869 841.5443 350.2798 370" width="315.25182" height="333" x="92.3741px" y="83.5px" xmlns="http://www.w3.org/2000/svg" xmlns:xlink="http://www.w3.org/1999/xlink" preserveAspectRatio="none"><defs></defs><style>.companyName {fill:#FFE7D6;fill-opacity:1;}.icon1 {fill:#FFE7D6;fill-opacity:1;}.icon2 {fill:#364C63;fill-opacity:1;}.icon3 {fill:#F3B340;fill-opacity:1;}.icon3-str {stroke:#F3B340;stroke-opacity:1;}</style><g opacity="1" transform="rotate(0 1309.1028 841.5443)">
<svg width="238.048" height="200" x="1309.1028" y="841.5443" version="1.1" preserveAspectRatio="none" viewBox="5.321000099182129 8.045001983642578 39.99700164794922 33.60410690307617">
  <g transform="matrix(1 0 0 1 0 0)" class="icon1"><path d="M45.266,34.012c-0.04-0.081-0.096-0.151-0.167-0.21c-0.071-0.063-0.157-0.103-0.253-0.124l-11.361-2.7  c-0.046-0.019-0.087-0.019-0.133-0.025c-0.05,0-0.09,0.007-0.136,0.016c-0.05,0.01-0.096,0.016-0.146,0.034  c-0.037,0.013-0.086,0.037-0.136,0.062l-3.263,1.854l-0.711-0.278c-0.056-0.024-0.111-0.046-0.167-0.071  c-0.049-0.021-0.086-0.056-0.136-0.077c-0.031-0.024-0.071-0.056-0.111-0.09c0.671-0.621,1.1-1.498,1.1-2.475v-9.354h0.399  l2.166,2.167l2.039-0.232l-6.764-6.762v-4.835h-3.074v1.761l-4.628-4.628L5.321,22.508L7.36,22.74l1.712-1.713v8.9  c0,1.879,1.52,3.405,3.408,3.405h13.756c0.271,0,0.543-0.037,0.797-0.103l-0.047-0.176l-0.049-0.327l-0.007-0.34l0.016-0.304  c0.007-0.207,0.031-0.463,0.062-0.723c-0.03,0-0.055,0.013-0.092,0.013c-0.504,0-0.909-0.405-0.909-0.908  c0-0.501,0.405-0.909,0.909-0.909c0.414,0,0.747,0.281,0.858,0.661c-0.596,0.304-0.63,1.403-0.651,1.972l-0.01,0.191v0.214v0.102  l0.016,0.099l0.034,0.213l0.056,0.207l0.021,0.105l0.034,0.102l0.037,0.103c0,0,0.009,0.049,0.024,0.074l0.009,0.03l0.087,0.207  c0.04,0.065,0.071,0.137,0.111,0.201c0.04,0.062,0.08,0.127,0.127,0.191c0.049,0.062,0.096,0.124,0.154,0.18  c0.056,0.056,0.117,0.104,0.188,0.154c0.024,0.024,0.049,0.037,0.08,0.056c0.034,0.024,0.056,0.037,0.09,0.056  c0.03,0.016,0.062,0.03,0.093,0.037c0.033,0.019,0.074,0.024,0.104,0.034c0.007,0.009,0.016,0.009,0.025,0.009  c0.015,0.006,0.021,0.006,0.03,0.006c0.01,0,0.016,0.007,0.025,0.007c0.006,0,0.024,0,0.03,0c0.024,0.012,0.05,0.012,0.065,0.019  c0.03,0,0.056,0,0.077,0c0.024,0,0.049,0,0.074,0c0.021,0,0.046,0,0.07-0.007h0.071l0.087-0.019l0.145-0.04l0.071-0.03  c0,0,0.05-0.01,0.081-0.025l0.151-0.077l0.142-0.104l0.065-0.056l0.062-0.065c0.04-0.046,0.08-0.096,0.111-0.151  c0.034-0.046,0.064-0.104,0.089-0.16c0.025-0.056,0.041-0.111,0.056-0.158c0.01-0.056,0.016-0.111,0.025-0.167  c0-0.024,0-0.046-0.01-0.07c0-0.025,0-0.05-0.006-0.074c0-0.021-0.01-0.047-0.019-0.068c-0.006-0.024-0.016-0.049-0.021-0.074  c0.03-0.006,0.056-0.016,0.086-0.016c0.025-0.009,0.047-0.009,0.081-0.015c0.021,0,0.056,0,0.077,0.006c0.034,0,0.059,0,0.08,0.009  c0.074,0.022,0.136,0.056,0.186,0.103c0.056,0.043,0.086,0.104,0.111,0.167c0.021,0.067,0.03,0.136,0.03,0.216  c-0.009,0.074-0.024,0.154-0.064,0.231c-0.04,0.081-0.087,0.158-0.143,0.214c-0.064,0.067-0.126,0.123-0.2,0.16  c-0.071,0.04-0.148,0.065-0.229,0.081c-0.074,0.015-0.151,0.006-0.223-0.007c0,0-0.025-0.009-0.056,0.013l-0.136,0.099l-0.034,0.021  l-0.127,0.071c0,0-0.04,0.019-0.071,0.031l-0.024,0.012l-0.111,0.047c0,0-0.167,0.04-0.176,0.046l0.853,3.044  c0.01,0.046,0.024,0.089,0.05,0.126c0.024,0.041,0.046,0.074,0.08,0.105c0.031,0.031,0.062,0.062,0.102,0.087  c0.04,0.024,0.081,0.04,0.127,0.056l11.367,3.274c0.096,0.031,0.201,0.031,0.303,0.025c0.103-0.019,0.207-0.05,0.294-0.1  c0.096-0.046,0.186-0.117,0.266-0.197c0.071-0.071,0.133-0.167,0.173-0.272l2.71-6.507c0.046-0.093,0.062-0.197,0.062-0.293  S45.3,34.092,45.266,34.012z M19.364,26.069h-2.422v-2.421h2.422V26.069z M19.364,22.66h-2.422v-2.429h2.422V22.66z M22.63,26.069  h-2.432v-2.421h2.432V26.069z M22.63,22.66h-2.432v-2.429h2.432V22.66z M27.392,31.23c0.09-0.519,0.278-0.732,0.423-0.821  c0,0.019,0.016,0.033,0.016,0.056c0,0.074-0.016,0.136-0.031,0.2l-0.015,0.021l-0.081,0.192l-0.015,0.067  C27.614,31.063,27.512,31.159,27.392,31.23z M29.598,33.789c0,0.031-0.006,0.071-0.016,0.102c-0.006,0.034-0.016,0.065-0.031,0.096  c-0.009,0.031-0.03,0.063-0.046,0.097c-0.024,0.033-0.05,0.055-0.074,0.089l-0.04,0.031l-0.031,0.037l-0.096,0.064  c0,0-0.102,0.047-0.12,0.056l-0.096,0.04l-0.118,0.025l-0.049,0.006l-0.056,0.01c-0.016,0.009-0.04,0.009-0.056,0.009  s-0.031,0-0.056,0c-0.016,0-0.031,0-0.046,0c-0.016-0.009-0.041-0.009-0.146-0.024c-0.021-0.007-0.047-0.019-0.071-0.025  c-0.031-0.006-0.056-0.024-0.08-0.03c-0.021-0.019-0.047-0.025-0.071-0.04c-0.024-0.016-0.046-0.025-0.071-0.041  c-0.024-0.024-0.056-0.04-0.08-0.062c-0.021-0.024-0.056-0.049-0.08-0.074c-0.021-0.024-0.047-0.049-0.071-0.07  c-0.024-0.022-0.04-0.056-0.062-0.081c-0.025-0.021-0.05-0.056-0.065-0.086c-0.024-0.025-0.04-0.056-0.064-0.09  c-0.016-0.024-0.04-0.056-0.056-0.087c-0.016-0.024-0.031-0.056-0.047-0.08l-0.096-0.191c0,0-0.009-0.024-0.016-0.047l-0.015-0.056  l-0.04-0.096l-0.041-0.096l-0.03-0.089c0.204-0.078,0.396-0.18,0.581-0.3c0.021,0.021,0.037,0.04,0.056,0.064  c0.046,0.047,0.102,0.093,0.166,0.148c0.047,0.031,0.096,0.074,0.151,0.105c0.047,0.03,0.103,0.062,0.158,0.086l0.16,0.08  l0.223,0.105c-0.006,0-0.016,0.006-0.024,0.013c-0.062,0.067-0.111,0.145-0.151,0.226c-0.047,0.077-0.071,0.166-0.077,0.247  c-0.019,0.086-0.01,0.176,0.006,0.256l0.056,0.167l0.074-0.009c0,0,0.031,0.009,0.037,0l0.049-0.01l0.031-0.006l0.05-0.019  l0.111-0.037l0.04-0.024l0.04-0.007l0.031-0.024c0,0,0.024-0.019,0.03-0.024l0.031-0.031l0.034-0.031l0.03-0.033l0.047-0.158  c0.019-0.024,0.024-0.049,0.033-0.074c0.016-0.016,0.031-0.037,0.041-0.056c0.015-0.024,0.03-0.04,0.046-0.062  c0.016-0.019,0.034-0.034,0.05-0.05c0.006,0.016,0.006,0.025,0.016,0.041c0,0.015,0,0.021,0,0.04  c0.006,0.015,0.006,0.024,0.006,0.037C29.598,33.765,29.598,33.771,29.598,33.789z"></path></g>
</svg>
</g><g opacity="1" transform="rotate(0 1252.9869 1091.5443)">
<svg width="350.2798" height="120" x="1252.9869" y="1091.5443" version="1.1" preserveAspectRatio="none" viewBox="2.24 -23.52 79.28 27.16">
  <g transform="matrix(1 0 0 1 0 0)" class="companyName"><path id="id-D6z1nYkh3" d="M15.88-21.28L11.52-21.40Q10.88-21.40 10.10-21.22Q9.32-21.04 8.46-20.78Q7.60-20.52 6.82-20.26Q6.04-20 5.40-19.88L5.40-19.88L5.08-19.88Q4.24-19.88 3.78-19.56Q3.32-19.24 2.92-18.84L2.92-18.84L2.24-18.16L2.44-17.12L3-16.96L5.08-17.36L9.44-17.72L9.56-17.72Q9.96-17.72 9.96-17.44L9.96-17.44Q9.96-17.24 9.92-17.04Q9.88-16.84 9.88-16.64L9.88-16.64Q9.88-16.24 10.08-15.96L10.08-15.96L10.56-15.56L10.68-13.04Q10.68-12.76 10.70-12.34Q10.72-11.92 10.80-11.52Q10.88-11.12 11.06-10.78Q11.24-10.44 11.52-10.40L11.52-10.40L13.64-9.96L14.48-9.96L14.84-10.24Q14.84-10.52 14.92-10.90Q15-11.28 15.10-11.62Q15.20-11.96 15.30-12.26Q15.40-12.56 15.40-12.76L15.40-12.76Q15.48-13.56 15.50-14.02Q15.52-14.48 15.50-14.90Q15.48-15.32 15.50-15.80Q15.52-16.28 15.64-17.12L15.64-17.12L15.96-17.72Q16.04-17.88 16.08-18.10Q16.12-18.32 16.48-18.72L16.48-18.72L16.28-19.92L15.88-21.28ZM19.28-22.48L19.28-22.48L19.56-18.28L19.68-17.72L19.52-16.72L19.52-9.72L19.68-9.44L21.52-8.56L22.32-9.88Q22.24-10.08 22.18-10.50Q22.12-10.92 22.08-11.38Q22.04-11.84 22.02-12.26Q22-12.68 22-12.92L22-12.92L21.88-13.96Q21.88-14.20 21.86-14.40Q21.84-14.60 21.80-14.76L21.80-14.76L21.56-16.24Q21.76-16.40 21.76-16.50Q21.76-16.60 21.92-17.12L21.92-17.12L22.40-22.12L20.24-23.52Q19.88-23.36 19.60-23.10Q19.32-22.84 19.28-22.48ZM19.56-7.44L19.56-7.44Q19.32-7.32 18.94-7.22Q18.56-7.12 18.10-7.02Q17.64-6.92 17.16-6.86Q16.68-6.80 16.24-6.80L16.24-6.80Q16-6.80 15.82-6.82Q15.64-6.84 15.44-6.88L15.44-6.88Q14.80-6.72 14.76-6.16L14.76-6.16L14.28-5.20L14-3.92Q13.88-3.64 13.70-3.26Q13.52-2.88 13.52-2.76L13.52-2.76Q13.52-2.56 13.66-2.30Q13.80-2.04 13.80-1.84L13.80-1.84Q13.80-1.72 13.72-1.64Q13.64-1.56 13.64-1.36L13.64-1.36Q13.64-1.12 13.68-0.88Q13.72-0.64 13.72-0.36L13.72-0.36Q13.72-0.16 13.60 0L13.60 0L13.24 1.08L13.56 1.24L15.60 1.52L16.48 1.52L16.84 1L18.64 0.68L19.40 0.28L21.64-0.28L21.84-0.52L23.60-0.72L23.72-1.88Q23.52-2.28 23.38-2.64Q23.24-3 23.20-3.52L23.20-3.52L22.76-6.12Q22.76-6.36 22.52-6.52Q22.28-6.68 21.98-6.78Q21.68-6.88 21.44-6.98Q21.20-7.08 21.16-7.24L21.16-7.24L20.92-7.40Q20.88-7.36 20.72-7.36L20.72-7.36Q20.48-7.36 20.24-7.46Q20-7.56 19.80-7.56L19.80-7.56Q19.56-7.56 19.56-7.44ZM17.40-4.52L20.24-4.84L20.68-4.56Q20.80-4.36 20.84-4.16Q20.88-3.96 20.92-3.76L20.92-3.76L20.92-3.40Q20.92-3.20 20.92-3.06Q20.92-2.92 20.96-2.76L20.96-2.76L20.88-2.44Q20.48-2.24 20.28-2.10Q20.08-1.96 19.72-1.96L19.72-1.96L17.96-1.32L17.56-1.48L17.36-2.12L16.60-3.16L16.60-3.44L17.12-4.36L17.40-4.52Z M41-21L39.68-20.52L38.80-20Q38.80-19.32 38.64-18.64Q38.48-17.96 38.48-17.28L38.48-17.28Q38.48-16.80 38.68-16.40L38.68-16.40L37.92-16.16L35.36-15.84Q35.24-15.80 35.12-16.26Q35-16.72 34.86-17.28Q34.72-17.84 34.52-18.32Q34.32-18.80 34.16-18.80L34.16-18.80Q33.96-18.76 33.68-18.76L33.68-18.76Q33.36-18.76 33.12-18.78Q32.88-18.80 32.72-18.80L32.72-18.80L32.52-18.80L31.64-18.36L31.04-16.84Q30.80-16.80 30.72-16.48Q30.64-16.16 30.64-15.72L30.64-15.72Q30.64-14 30.84-13.22Q31.04-12.44 31.32-12.28L31.32-12.28L31.12-7.36L31.48-7.08Q31.88-7.08 32.08-7.02Q32.28-6.96 32.42-6.88Q32.56-6.80 32.68-6.74Q32.80-6.68 33-6.68L33-6.68L35.64-6.68Q36.32-6.68 36.82-6.88Q37.32-7.08 37.74-7.34Q38.16-7.60 38.58-7.90Q39-8.20 39.52-8.40L39.52-8.40Q40.20-8.60 41.10-8.70Q42-8.80 42.96-8.80L42.96-8.80L43.96-8.80Q44.32-8.80 44.32-9.04Q44.32-9.28 44.68-9.44L44.68-9.44L44.40-10.40L44.40-10.84Q44.40-11.40 44.08-11.76Q43.76-12.12 43.68-12.56L43.68-12.56Q43.24-12.72 43.12-13.14Q43-13.56 42.94-14.20Q42.88-14.84 42.84-15.76Q42.80-16.68 42.56-17.88L42.56-17.88Q42.40-19 42.08-19.90Q41.76-20.80 41.36-21L41.36-21L41-21ZM39.08-14.84L39.08-14.84L39.36-14.68Q39.60-13.60 39.64-12.80Q39.68-12 40.04-11.16L40.04-11.16L40.04-10.96Q40.04-10.80 39.90-10.66Q39.76-10.52 39.76-10.36L39.76-10.36L37.28-8.80L36.64-9.08L35.84-13.36L35.84-13.68L36.12-13.92Q36.84-13.92 37.06-14Q37.28-14.08 37.42-14.24Q37.56-14.40 37.86-14.56Q38.16-14.72 39.08-14.84ZM47.04-20.28L47.04-20.28L47.28-16.08L47.44-15.48L47.24-14.48L47.24-7.56L47.44-7.24L48.84-6.76L49.08-6.76L49.40-7.40Q49.24-7.72 49.18-8.36Q49.12-9 49.12-9.64L49.12-9.64Q49.12-10.28 49.18-10.58Q49.24-10.88 49.34-11.02Q49.44-11.16 49.48-11.20Q49.52-11.24 49.52-11.32L49.52-11.32L49.52-11.44L49.32-12.92Q49.48-13.12 49.54-13.24Q49.60-13.36 49.68-13.80L49.68-13.80L49.84-14.80L50.24-14.80L51.08-14.80Q51.72-14.80 52.04-15.16L52.04-15.16L53.60-15.36L53.92-16.32L53.92-16.60Q53.68-16.96 53.38-17.30Q53.08-17.64 52.64-17.64L52.64-17.64L52.40-17.64L51.76-17.64L50-16.96L49.76-20.28L49.44-20.28L48-21.32Q47.60-21.16 47.34-20.90Q47.08-20.64 47.04-20.28ZM47.52-4.96L45.16-4.96Q44.68-5 44.08-4.90Q43.48-4.80 42.88-4.60Q42.28-4.40 41.72-4.20Q41.16-4 40.72-3.92L40.72-3.92L40.48-3.92Q39.80-3.92 39.44-3.64Q39.08-3.36 38.88-3.12L38.88-3.12L38.40-2.60L38.52-1.80L38.92-1.68L40.44-2L43.60-2.28Q44-2.28 44-2.08L44-2.08Q44-1.88 43.96-1.72Q43.92-1.56 43.92-1.36L43.92-1.36Q43.92-1.12 44.08-0.92L44.08-0.92L44.44-0.64L44.52 1.32Q44.52 1.56 44.54 1.88Q44.56 2.20 44.62 2.50Q44.68 2.80 44.80 3.04Q44.92 3.28 45.16 3.32L45.16 3.32L46.68 3.64L47.32 3.64L47.56 3.44Q47.56 2.96 47.76 2.38Q47.96 1.80 47.96 1.52L47.96 1.52Q48.04 0.96 48.06 0.60Q48.08 0.24 48.08-0.06Q48.08-0.36 48.12-0.76Q48.16-1.16 48.24-1.80L48.24-1.80L48.40-2.28Q48.40-2.36 48.14-2.48Q47.88-2.60 47.88-2.80L47.88-2.80Q47.88-2.88 47.96-3L47.96-3L47.80-3.92L47.52-4.96Z M68.72-10.64L68.80-10.92Q70.04-10.92 71.08-10.98Q72.12-11.04 72.56-11.28L72.56-11.28Q72.64-11.76 72.72-12.14Q72.80-12.52 72.80-12.76L72.80-12.76Q72.80-13.12 72.62-13.48Q72.44-13.84 72-13.84L72-13.84Q71.28-13.84 70.40-13.70Q69.52-13.56 68.60-13.40Q67.68-13.24 66.84-13.12Q66-13 65.40-12.96L65.40-12.96L63.56-12.60L60.96-12.84Q60.56-12.84 60.02-12.62Q59.48-12.40 59.08-12.40L59.08-12.40Q58.84-12.40 58.76-12.48L58.76-12.48L58.44-12.68L58.20-12.68Q57.76-12.52 57.74-12.40Q57.72-12.28 57.72-11.88L57.72-11.88Q57.72-11.60 57.78-11.28Q57.84-10.96 58-10.80L58-10.80L59.04-10.08L61.16-10.48L61.40-10.72Q61.44-10.72 61.74-10.70Q62.04-10.68 62.40-10.68L62.40-10.68Q62.80-10.68 63.22-10.70Q63.64-10.72 64-10.80L64-10.80L62.44-9L61.20-7.68L60.64-6.72L59.88-5.64Q59.88-5.36 59.72-5.08Q59.56-4.80 59.34-4.56Q59.12-4.32 58.92-4.12Q58.72-3.92 58.68-3.92L58.68-3.92Q58.56-3.80 58.38-3.66Q58.20-3.52 57.96-3.32L57.96-3.32L58.28-2.28L59.20-2.08L59.68-2.20L60.12-2.08Q60.64-2.08 60.86-1.86Q61.08-1.64 61.48-1.40L61.48-1.40L61.76-1.40Q61.92-1.60 62.12-1.58Q62.32-1.56 62.68-1.60L62.68-1.60L63.72-3.28Q63.96-3.60 64.04-3.76Q64.12-3.92 64.16-3.98Q64.20-4.04 64.32-4.12Q64.44-4.20 64.76-4.36L64.76-4.36L65.20-5.44Q65.28-5.88 65.48-6.08Q65.68-6.28 66.20-6.36L66.20-6.36L66.84-5.72Q67.08-5.72 67.26-5.60Q67.44-5.48 67.62-5.34Q67.80-5.20 67.94-5.06Q68.08-4.92 68.28-4.88L68.28-4.88L70.32-3.92Q70.64-3.04 71.40-3.04L71.40-3.04Q71.64-3.04 71.80-3.12L71.80-3.12L72.96-4.12L73.32-5.08L71.12-6.20L70.44-6.96Q69.80-7.32 69.02-7.68Q68.24-8.04 67.84-8.56L67.84-8.56L68.72-10.64ZM65-15.72L65.12-15.88L67.52-15.68L69.28-15.68L70.60-16.52L70.60-17.04Q70.48-17.92 70.12-18.18Q69.76-18.44 69.56-18.44L69.56-18.44L66.44-18.16L64.20-18.16L63.68-17.40Q63.48-17.36 63.16-17.36L63.16-17.36Q62.80-17.36 62.48-17.40Q62.16-17.44 61.84-17.48L61.84-17.48Q61.40-17.48 61-17.38Q60.60-17.28 60.32-16.96L60.32-16.96L60.08-15.76Q60.28-15.36 60.40-15.22Q60.52-15.08 60.64-15.08L60.64-15.08Q60.72-15.08 60.82-15.10Q60.92-15.12 61.08-15.12L61.08-15.12Q61.36-15.12 61.52-15.04L61.52-15.04L65-15.72ZM74.64-17.96L74.64-17.96L74.88-13.76Q74.88-12.72 74.90-11.90Q74.92-11.08 74.94-10.30Q74.96-9.52 74.98-8.72Q75-7.92 75.04-6.92L75.04-6.92Q74.76-6.20 74.74-5.66Q74.72-5.12 74.72-4.60L74.72-4.60Q74.72-4.44 74.72-4.02Q74.72-3.60 74.74-3.14Q74.76-2.68 74.80-2.34Q74.84-2 74.92-2L74.92-2L75.04-1.84L76.44-1.36L76.68-1.36L77-2Q76.92-2.08 76.92-2.32L76.92-2.32Q76.92-2.52 76.98-2.72Q77.04-2.92 77.04-3.08L77.04-3.08Q77.04-3.32 76.96-3.44L76.96-3.44L77.16-4.84Q77-5.16 76.88-5.72Q76.76-6.28 76.76-6.80L76.76-6.80L76.76-7L76.92-7.28L76.92-7.44Q76.92-7.84 77.02-8.26Q77.12-8.68 77.12-8.96L77.12-8.96L77.12-9.12L77.12-9.76Q77.12-9.88 77.16-9.88L77.16-9.88Q77.20-9.88 77.20-9.88L77.20-9.88Q77.24-9.88 77.26-9.98Q77.28-10.08 77.30-10.22Q77.32-10.36 77.42-10.46Q77.52-10.56 77.84-10.56L77.84-10.56L78.68-10.56Q79.32-10.56 79.64-10.92L79.64-10.92L81.20-11.12L81.52-12.12L81.52-12.36Q81.28-12.72 80.98-13.06Q80.68-13.40 80.24-13.40L80.24-13.40L80-13.40L79.36-13.40L77.60-12.72L77.60-17.96L77.04-17.96L75.60-19Q75.20-18.84 74.94-18.58Q74.68-18.32 74.64-17.96Z"/></g>
</svg>
</g></svg></svg>